# xmcd CD database file
#
# Track frame offsets:
#	150
#	16310
#	30415
#	50991
#	72567
#	76014
#	90833
#	110004
#	127669
#	133228
#	154080
#	174241
#	191535
#	210122
#	231950
#	249712
#	269638
#	280726
#	297000
#
# Disc length: 4549 seconds
#
# Revision: 0
# Processed by: cddbd v1.5.1PL0 Copyright (c) Steve Scherf et al.
# Submitted via: CDex 1.51
#
DISCID=0311c313
DTITLE=KASABIAN - KASABIAN-ULIMATE VERSION-
DYEAR=2005
DGENRE=Rock
TTITLE0=Club Foot
TTITLE1=Plocessed Is Treason
TTITLE2=Reason Is Treason
TTITLE3=I..D.
TTITLE4=Orange(Interlude)
TTITLE5=L.S.F.(Lost Souls Forever)
TTITLE6=Running Battle
TTITLE7=Test Transmission
TTITLE8=Pinch Roller(Inter lude)
TTITLE9=Cutt Off
TTITLE10=Butcher Blues
TTITLE11=Overy Stripe
TTITLE12=U Boat
TTITLE13=Club Foot Jagz Kooner Vocal Mix
TTITLE14=Sand Clit
TTITLE15=55 Live At Brixton Academy
TTITLE16=Out Of Space Live Lounge Version
TTITLE17=The Duke
TTITLE18=Bang
EXTD=YEAR: 2005
EXTT0=
EXTT1=
EXTT2=
EXTT3=
EXTT4=
EXTT5=
EXTT6=
EXTT7=
EXTT8=
EXTT9=
EXTT10=
EXTT11=
EXTT12=
EXTT13=
EXTT14=
EXTT15=
EXTT16=
EXTT17=
EXTT18=
PLAYORDER=
